<?xml version="1.0" encoding="UTF-8" standalone="no" ?>
<!DOCTYPE svg PUBLIC "-//W3C//DTD SVG 1.1//EN" "http://www.w3.org/Graphics/SVG/1.1/DTD/svg11.dtd">
<svg xmlns="http://www.w3.org/2000/svg" xmlns:xlink="http://www.w3.org/1999/xlink" version="1.1" width="100%" height="100%" viewBox="350 440 600 130" xml:space="preserve">
<desc>Created with Fabric.js 5.3.0</desc>
<defs>
</defs>
<g transform="matrix(1 0 0 1 640 512)" id="background-logo"  >
<rect style="stroke: none; stroke-width: 0; stroke-dasharray: none; stroke-linecap: butt; stroke-dashoffset: 0; stroke-linejoin: miter; stroke-miterlimit: 4; fill: rgb(255,255,255); fill-opacity: 0; fill-rule: nonzero; opacity: 1;"  paint-order="stroke"  x="-640" y="-512" rx="0" ry="0" width="1280" height="1024" />
</g>
<g transform="matrix(1.9211538461538462 0 0 1.9211538461538462 641.0446274038462 506.25705638461534)" id="text-logo"  >
<g style=""  paint-order="stroke"   >
        <g transform="matrix(1 0 0 1 0 0)" id="text-logo-path-0"  >
<filter id="SVGID_174761" y="-22.967399534766326%" height="145.93479906953266%" x="-23.527011536773657%" width="147.0540230735473%" >
    <feGaussianBlur in="SourceAlpha" stdDeviation="0"></feGaussianBlur>
    <feOffset dx="7.404255319148937" dy="1.8510638297872342" result="oBlur" ></feOffset>
    <feFlood flood-color="rgb(255,70,163)" flood-opacity="1"/>
    <feComposite in2="oBlur" operator="in" />
    <feMerge>
        <feMergeNode></feMergeNode>
        <feMergeNode in="SourceGraphic"></feMergeNode>
    </feMerge>
</filter>
<path style="stroke: rgb(0,0,0); stroke-width: 7.404255319148935; stroke-dasharray: none; stroke-linecap: butt; stroke-dashoffset: 0; stroke-linejoin: miter; stroke-miterlimit: 4; fill: rgb(255,255,255); fill-rule: nonzero; opacity: 1;filter: url(#SVGID_174761);"  paint-order="stroke"  transform=" translate(-108.44500000000001, 30.32)" d="M 12.96 0 L 4.26 0 Q 3.57 0 3.57 -0.61 L 3.57 -0.61 L 3.48 -59.86 Q 3.48 -60.55 4.18 -60.55 L 4.18 -60.55 L 12.01 -60.55 L 26.71 -26.27 L 26.27 -59.86 Q 26.27 -60.55 27.06 -60.55 L 27.06 -60.55 L 35.67 -60.55 Q 36.19 -60.55 36.19 -59.86 L 36.19 -59.86 L 36.28 -0.52 Q 36.28 0 35.84 0 L 35.84 0 L 28.19 0 L 13.14 -32.02 L 13.75 -0.7 Q 13.75 0 12.96 0 L 12.96 0 Z M 65.77 0.87 L 65.77 0.87 Q 61.07 0.87 57.2 -1.52 Q 53.33 -3.92 50.98 -7.87 Q 48.63 -11.83 48.63 -16.62 L 48.63 -16.62 L 48.72 -44.2 Q 48.72 -48.98 51.03 -52.9 Q 53.33 -56.81 57.25 -59.16 Q 61.16 -61.51 65.77 -61.51 L 65.77 -61.51 Q 70.47 -61.51 74.3 -59.16 Q 78.13 -56.81 80.43 -52.9 Q 82.74 -48.98 82.74 -44.2 L 82.74 -44.2 L 82.82 -16.62 Q 82.82 -11.83 80.52 -7.87 Q 78.21 -3.92 74.34 -1.52 Q 70.47 0.87 65.77 0.87 Z M 65.77 -9.66 L 65.77 -9.66 Q 68.38 -9.66 70.34 -11.79 Q 72.3 -13.92 72.3 -16.62 L 72.3 -16.62 L 72.21 -44.2 Q 72.21 -47.07 70.38 -49.07 Q 68.56 -51.07 65.77 -51.07 L 65.77 -51.07 Q 63.08 -51.07 61.16 -49.11 Q 59.25 -47.15 59.25 -44.2 L 59.25 -44.2 L 59.25 -16.62 Q 59.25 -13.75 61.16 -11.7 Q 63.08 -9.66 65.77 -9.66 Z M 111.27 -0.09 L 95.7 0 Q 95.27 0 95.27 -0.44 L 95.27 -0.44 L 95.44 -60.2 Q 95.44 -60.55 95.79 -60.55 L 95.79 -60.55 L 112.06 -60.64 Q 116.84 -60.73 120.8 -58.38 Q 124.76 -56.03 127.11 -52.07 Q 129.46 -48.11 129.46 -43.33 L 129.46 -43.33 L 129.46 -18.36 Q 129.46 -13.31 127.02 -9.18 Q 124.58 -5.05 120.5 -2.61 Q 116.41 -0.17 111.27 -0.09 L 111.27 -0.09 Z M 105.97 -50.11 L 105.88 -10.7 L 111.27 -10.7 Q 114.49 -10.7 116.71 -12.96 Q 118.93 -15.23 118.93 -18.36 L 118.93 -18.36 L 118.93 -43.41 Q 118.93 -46.2 116.88 -48.24 Q 114.84 -50.29 112.06 -50.2 L 112.06 -50.2 L 105.97 -50.11 Z M 170.61 0 L 142.51 0 Q 142.16 0 142.16 -0.44 L 142.16 -0.44 L 142.25 -60.2 Q 142.25 -60.55 142.59 -60.55 L 142.59 -60.55 L 170.52 -60.55 Q 170.87 -60.55 170.87 -60.12 L 170.87 -60.12 L 170.87 -50.37 Q 170.87 -50.03 170.52 -50.03 L 170.52 -50.03 L 152.69 -50.03 L 152.69 -36.45 L 170.52 -36.45 Q 170.87 -36.45 170.87 -36.11 L 170.87 -36.11 L 170.95 -26.27 Q 170.95 -25.93 170.61 -25.93 L 170.61 -25.93 L 152.69 -25.93 L 152.69 -10.7 L 170.61 -10.7 Q 170.95 -10.7 170.95 -10.27 L 170.95 -10.27 L 170.95 -0.35 Q 170.95 0 170.61 0 L 170.61 0 Z M 212.98 0 L 184.88 0 Q 184.53 0 184.53 -0.44 L 184.53 -0.44 L 184.61 -60.12 Q 184.61 -60.55 185.05 -60.55 L 185.05 -60.55 L 194.71 -60.55 Q 195.14 -60.55 195.14 -60.12 L 195.14 -60.12 L 195.05 -10.7 L 212.98 -10.7 Q 213.41 -10.7 213.41 -10.27 L 213.41 -10.27 L 213.41 -0.44 Q 213.41 0 212.98 0 L 212.98 0 Z" stroke-linecap="round" />
</g>
</g>
</g>
</svg>