<svg viewBox="350 440 600 130" width="100%" height="100%" xmlns="http://www.w3.org/2000/svg" xmlns:xlink="http://www.w3.org/1999/xlink" version="1.1" xml:space="preserve">
<desc>Created with Fabric.js 5.3.0</desc>
<g transform="matrix(1 0 0 1 640 512)" id="background-logo">
<rect style="stroke: none; stroke-width: 0; stroke-dasharray: none; stroke-linecap: butt; stroke-dashoffset: 0; stroke-linejoin: miter; stroke-miterlimit: 4; fill: rgb(255,255,255); fill-opacity: 0; fill-rule: nonzero; opacity: 1;" paint-order="stroke" x="-640" y="-512" rx="0" ry="0" width="1280" height="1024" />
</g>
<g transform="matrix(1.9211538461538462 0 0 1.9211538461538462 637.1586134615385 506.340626576923)" id="text-logo">
<g style="" paint-order="stroke">
    <g transform="matrix(1 0 0 1 0 0)" id="text-logo-path-0">
<filter id="SVGID_205310" y="-22.97168699596602%" height="145.94337399193205%" x="-22.53292806484296%" width="145.06585612968593%">
    <feGaussianBlur in="SourceAlpha" stdDeviation="0"></feGaussianBlur>
    <feOffset dx="7.404255319148937" dy="1.8510638297872342" result="oBlur"></feOffset>
    <feFlood flood-color="rgb(255,70,163)" flood-opacity="1"/>
    <feComposite in2="oBlur" operator="in" />
    <feMerge>
        <feMergeNode></feMergeNode>
        <feMergeNode in="SourceGraphic"></feMergeNode>
    </feMerge>
</filter>
<path style="stroke: rgb(0,0,0); stroke-width: 7.404255319148935; stroke-dasharray: none; stroke-linecap: butt; stroke-dashoffset: 0; stroke-linejoin: miter; stroke-miterlimit: 4; fill: rgb(255,255,255); fill-rule: nonzero; opacity: 1;filter: url(#SVGID_205310);" paint-order="stroke" transform=" translate(-147.38, 30.275000000000006)" d="M 18.27 0.87 L 18.27 0.87 Q 13.57 0.87 9.7 -1.52 Q 5.83 -3.92 3.52 -7.87 Q 1.22 -11.83 1.22 -16.62 L 1.22 -16.62 L 1.22 -20.62 Q 1.22 -21.05 1.65 -21.05 L 1.65 -21.05 L 11.4 -21.05 Q 11.75 -21.05 11.75 -20.62 L 11.75 -20.62 L 11.75 -16.62 Q 11.75 -13.75 13.66 -11.7 Q 15.57 -9.66 18.27 -9.66 L 18.27 -9.66 Q 20.97 -9.66 22.88 -11.75 Q 24.8 -13.83 24.8 -16.62 L 24.8 -16.62 Q 24.8 -19.84 20.62 -22.19 L 20.62 -22.19 Q 19.23 -22.97 16.27 -24.62 Q 13.31 -26.27 10.7 -27.75 L 10.7 -27.75 Q 5.92 -30.54 3.61 -34.76 Q 1.31 -38.98 1.31 -44.28 L 1.31 -44.28 Q 1.31 -49.16 3.65 -53.03 Q 6 -56.9 9.87 -59.16 Q 13.75 -61.42 18.27 -61.42 L 18.27 -61.42 Q 22.88 -61.42 26.75 -59.12 Q 30.62 -56.81 32.93 -52.94 Q 35.24 -49.07 35.24 -44.28 L 35.24 -44.28 L 35.24 -37.15 Q 35.24 -36.8 34.89 -36.8 L 34.89 -36.8 L 25.14 -36.8 Q 24.8 -36.8 24.8 -37.15 L 24.8 -37.15 L 24.71 -44.28 Q 24.71 -47.33 22.79 -49.24 Q 20.88 -51.16 18.27 -51.16 L 18.27 -51.16 Q 15.57 -51.16 13.66 -49.11 Q 11.75 -47.07 11.75 -44.28 L 11.75 -44.28 Q 11.75 -41.41 12.96 -39.5 Q 14.18 -37.58 17.4 -35.84 L 17.4 -35.84 Q 17.84 -35.58 19.1 -34.93 Q 20.36 -34.28 21.84 -33.45 Q 23.32 -32.63 24.49 -32.02 Q 25.67 -31.41 25.93 -31.23 L 25.93 -31.23 Q 30.28 -28.8 32.8 -25.27 Q 35.32 -21.75 35.32 -16.62 L 35.32 -16.62 Q 35.32 -11.66 33.02 -7.7 Q 30.71 -3.74 26.84 -1.44 Q 22.97 0.87 18.27 0.87 Z M 63.6 0 L 53.59 0 Q 53.33 0 53.33 -0.35 L 53.33 -0.35 L 53.42 -25.06 L 41.76 -60.2 Q 41.67 -60.55 42.02 -60.55 L 42.02 -60.55 L 51.68 -60.55 Q 52.11 -60.55 52.2 -60.2 L 52.2 -60.2 L 58.64 -36.8 L 65.16 -60.2 Q 65.25 -60.55 65.6 -60.55 L 65.6 -60.55 L 75.34 -60.55 Q 75.69 -60.55 75.6 -60.2 L 75.6 -60.2 L 63.86 -25.4 L 63.95 -0.35 Q 63.95 0 63.6 0 L 63.6 0 Z M 95.7 0 L 87 0 Q 86.3 0 86.3 -0.61 L 86.3 -0.61 L 86.22 -59.86 Q 86.22 -60.55 86.91 -60.55 L 86.91 -60.55 L 94.74 -60.55 L 109.45 -26.27 L 109.01 -59.86 Q 109.01 -60.55 109.79 -60.55 L 109.79 -60.55 L 118.41 -60.55 Q 118.93 -60.55 118.93 -59.86 L 118.93 -59.86 L 119.02 -0.52 Q 119.02 0 118.58 0 L 118.58 0 L 110.92 0 L 95.87 -32.02 L 96.48 -0.7 Q 96.48 0 95.7 0 L 95.7 0 Z M 129.46 -0.44 L 129.46 -0.44 L 140.24 -60.2 Q 140.33 -60.55 140.68 -60.55 L 140.68 -60.55 L 153.29 -60.55 Q 153.64 -60.55 153.73 -60.2 L 153.73 -60.2 L 164.08 -0.44 Q 164.17 0 163.73 0 L 163.73 0 L 154.08 0 Q 153.73 0 153.64 -0.44 L 153.64 -0.44 L 152.69 -6.79 L 140.85 -6.79 L 139.9 -0.44 Q 139.81 0 139.46 0 L 139.46 0 L 129.8 0 Q 129.46 0 129.46 -0.44 Z M 146.51 -40.54 L 142.59 -16.1 L 150.94 -16.1 L 147.38 -40.54 L 146.86 -43.76 L 146.51 -40.54 Z M 185.57 0 L 175.83 0 Q 175.39 0 175.39 -0.44 L 175.39 -0.44 L 175.57 -60.2 Q 175.57 -60.55 175.91 -60.55 L 175.91 -60.55 L 192.62 -60.55 Q 200.62 -60.55 205.28 -55.68 Q 209.93 -50.81 209.93 -42.46 L 209.93 -42.46 Q 209.93 -36.28 207.5 -31.76 Q 205.06 -27.23 201.14 -24.8 Q 197.23 -22.36 192.62 -22.36 L 192.62 -22.36 L 186.01 -22.36 L 186.01 -0.44 Q 186.01 0 185.57 0 L 185.57 0 Z M 186.01 -50.11 L 186.01 -32.89 L 192.62 -32.89 Q 195.4 -32.89 197.45 -35.54 Q 199.49 -38.19 199.49 -42.46 L 199.49 -42.46 Q 199.49 -45.85 197.66 -48.02 Q 195.84 -50.2 192.62 -50.2 L 192.62 -50.2 L 186.01 -50.11 Z M 235.77 0.87 L 235.77 0.87 Q 231.07 0.87 227.2 -1.52 Q 223.33 -3.92 221.02 -7.87 Q 218.72 -11.83 218.72 -16.62 L 218.72 -16.62 L 218.72 -20.62 Q 218.72 -21.05 219.15 -21.05 L 219.15 -21.05 L 228.9 -21.05 Q 229.25 -21.05 229.25 -20.62 L 229.25 -20.62 L 229.25 -16.62 Q 229.25 -13.75 231.16 -11.7 Q 233.07 -9.66 235.77 -9.66 L 235.77 -9.66 Q 238.47 -9.66 240.38 -11.75 Q 242.3 -13.83 242.3 -16.62 L 242.3 -16.62 Q 242.3 -19.84 238.12 -22.19 L 238.12 -22.19 Q 236.73 -22.97 233.77 -24.62 Q 230.81 -26.27 228.2 -27.75 L 228.2 -27.75 Q 223.42 -30.54 221.11 -34.76 Q 218.81 -38.98 218.81 -44.28 L 218.81 -44.28 Q 218.81 -49.16 221.15 -53.03 Q 223.5 -56.9 227.37 -59.16 Q 231.25 -61.42 235.77 -61.42 L 235.77 -61.42 Q 240.38 -61.42 244.25 -59.12 Q 248.12 -56.81 250.43 -52.94 Q 252.74 -49.07 252.74 -44.28 L 252.74 -44.28 L 252.74 -37.15 Q 252.74 -36.8 252.39 -36.8 L 252.39 -36.8 L 242.64 -36.8 Q 242.3 -36.8 242.3 -37.15 L 242.3 -37.15 L 242.21 -44.28 Q 242.21 -47.33 240.29 -49.24 Q 238.38 -51.16 235.77 -51.16 L 235.77 -51.16 Q 233.07 -51.16 231.16 -49.11 Q 229.25 -47.07 229.25 -44.28 L 229.25 -44.28 Q 229.25 -41.41 230.46 -39.5 Q 231.68 -37.58 234.9 -35.84 L 234.9 -35.84 Q 235.34 -35.58 236.6 -34.93 Q 237.86 -34.28 239.34 -33.45 Q 240.82 -32.63 241.99 -32.02 Q 243.16 -31.41 243.43 -31.23 L 243.43 -31.23 Q 247.78 -28.8 250.3 -25.27 Q 252.82 -21.75 252.82 -16.62 L 252.82 -16.62 Q 252.82 -11.66 250.52 -7.7 Q 248.21 -3.74 244.34 -1.44 Q 240.47 0.87 235.77 0.87 Z M 293.19 0 L 265.09 0 Q 264.74 0 264.74 -0.44 L 264.74 -0.44 L 264.83 -60.2 Q 264.83 -60.55 265.18 -60.55 L 265.18 -60.55 L 293.1 -60.55 Q 293.45 -60.55 293.45 -60.12 L 293.45 -60.12 L 293.45 -50.37 Q 293.45 -50.03 293.1 -50.03 L 293.1 -50.03 L 275.27 -50.03 L 275.27 -36.45 L 293.1 -36.45 Q 293.45 -36.45 293.45 -36.11 L 293.45 -36.11 L 293.54 -26.27 Q 293.54 -25.93 293.19 -25.93 L 293.19 -25.93 L 275.27 -25.93 L 275.27 -10.7 L 293.19 -10.7 Q 293.54 -10.7 293.54 -10.27 L 293.54 -10.27 L 293.54 -0.35 Q 293.54 0 293.19 0 L 293.19 0 Z" stroke-linecap="round" />
</g>
</g>
</g>
</svg>